{
    "asset" : {
        "generator" : "Khronos glTF Blender I/O v1.2.75",
        "version" : "2.0"
    },
    "scene" : 0,
    "scenes" : [
        {
            "name" : "Scene",
            "nodes" : [
                0
            ]
        }
    ],
    "nodes" : [
        {
            "mesh" : 0,
            "name" : "type-74"
        }
    ],
    "materials" : [
        {
            "doubleSided" : true,
            "emissiveFactor" : [
                0,
                0,
                0
            ],
            "name" : "MmdMtl000",
            "pbrMetallicRoughness" : {
                "baseColorTexture" : {
                    "index" : 0,
                    "texCoord" : 0
                },
                "metallicFactor" : 0,
                "roughnessFactor" : 0.6666666865348816
            }
        },
        {
            "doubleSided" : true,
            "emissiveFactor" : [
                0,
                0,
                0
            ],
            "name" : "MmdMtl001",
            "pbrMetallicRoughness" : {
                "baseColorTexture" : {
                    "index" : 1,
                    "texCoord" : 0
                },
                "metallicFactor" : 0,
                "roughnessFactor" : 0.9666666388511658
            }
        },
        {
            "doubleSided" : true,
            "emissiveFactor" : [
                0,
                0,
                0
            ],
            "name" : "MmdMtl002",
            "pbrMetallicRoughness" : {
                "baseColorTexture" : {
                    "index" : 2,
                    "texCoord" : 0
                },
                "metallicFactor" : 0,
                "roughnessFactor" : 0.9666666388511658
            }
        },
        {
            "doubleSided" : true,
            "emissiveFactor" : [
                0,
                0,
                0
            ],
            "name" : "MmdMtl003",
            "pbrMetallicRoughness" : {
                "baseColorTexture" : {
                    "index" : 3,
                    "texCoord" : 0
                },
                "metallicFactor" : 0,
                "roughnessFactor" : 0.9666666388511658
            }
        },
        {
            "doubleSided" : true,
            "emissiveFactor" : [
                0,
                0,
                0
            ],
            "name" : "MmdMtl004",
            "pbrMetallicRoughness" : {
                "baseColorTexture" : {
                    "index" : 4,
                    "texCoord" : 0
                },
                "metallicFactor" : 0,
                "roughnessFactor" : 0.9666666388511658
            }
        },
        {
            "doubleSided" : true,
            "emissiveFactor" : [
                0,
                0,
                0
            ],
            "name" : "MmdMtl005",
            "pbrMetallicRoughness" : {
                "baseColorTexture" : {
                    "index" : 5,
                    "texCoord" : 0
                },
                "metallicFactor" : 0,
                "roughnessFactor" : 0.925464391708374
            }
        },
        {
            "doubleSided" : true,
            "emissiveFactor" : [
                0,
                0,
                0
            ],
            "name" : "MmdMtl006",
            "pbrMetallicRoughness" : {
                "baseColorTexture" : {
                    "index" : 6,
                    "texCoord" : 0
                },
                "metallicFactor" : 0,
                "roughnessFactor" : 0.925464391708374
            }
        },
        {
            "doubleSided" : true,
            "emissiveFactor" : [
                0,
                0,
                0
            ],
            "name" : "MmdMtl007",
            "pbrMetallicRoughness" : {
                "baseColorTexture" : {
                    "index" : 7,
                    "texCoord" : 0
                },
                "metallicFactor" : 0,
                "roughnessFactor" : 0.9666666388511658
            }
        },
        {
            "doubleSided" : true,
            "emissiveFactor" : [
                0,
                0,
                0
            ],
            "name" : "MmdMtl008",
            "pbrMetallicRoughness" : {
                "baseColorTexture" : {
                    "index" : 8,
                    "texCoord" : 0
                },
                "metallicFactor" : 0,
                "roughnessFactor" : 0.9666666388511658
            }
        }
    ],
    "meshes" : [
        {
            "name" : "type-74",
            "primitives" : [
                {
                    "attributes" : {
                        "POSITION" : 0,
                        "NORMAL" : 1,
                        "TEXCOORD_0" : 2
                    },
                    "indices" : 3,
                    "material" : 0
                },
                {
                    "attributes" : {
                        "POSITION" : 4,
                        "NORMAL" : 5,
                        "TEXCOORD_0" : 6
                    },
                    "indices" : 7,
                    "material" : 1
                },
                {
                    "attributes" : {
                        "POSITION" : 8,
                        "NORMAL" : 9,
                        "TEXCOORD_0" : 10
                    },
                    "indices" : 11,
                    "material" : 2
                },
                {
                    "attributes" : {
                        "POSITION" : 12,
                        "NORMAL" : 13,
                        "TEXCOORD_0" : 14
                    },
                    "indices" : 15,
                    "material" : 3
                },
                {
                    "attributes" : {
                        "POSITION" : 16,
                        "NORMAL" : 17,
                        "TEXCOORD_0" : 18
                    },
                    "indices" : 19,
                    "material" : 4
                },
                {
                    "attributes" : {
                        "POSITION" : 20,
                        "NORMAL" : 21,
                        "TEXCOORD_0" : 22
                    },
                    "indices" : 23,
                    "material" : 5
                },
                {
                    "attributes" : {
                        "POSITION" : 24,
                        "NORMAL" : 25,
                        "TEXCOORD_0" : 26
                    },
                    "indices" : 27,
                    "material" : 6
                },
                {
                    "attributes" : {
                        "POSITION" : 28,
                        "NORMAL" : 29,
                        "TEXCOORD_0" : 30
                    },
                    "indices" : 31,
                    "material" : 7
                },
                {
                    "attributes" : {
                        "POSITION" : 32,
                        "NORMAL" : 33,
                        "TEXCOORD_0" : 34
                    },
                    "indices" : 35,
                    "material" : 8
                }
            ]
        }
    ],
    "textures" : [
        {
            "source" : 0
        },
        {
            "source" : 1
        },
        {
            "source" : 2
        },
        {
            "source" : 2
        },
        {
            "source" : 3
        },
        {
            "source" : 4
        },
        {
            "source" : 5
        },
        {
            "source" : 6
        },
        {
            "source" : 6
        }
    ],
    "images" : [
        {
            "mimeType" : "image/jpeg",
            "name" : "md_tank74_light1",
            "uri" : "md_tank74_light1.jpg"
        },
        {
            "mimeType" : "image/jpeg",
            "name" : "md_tank74_tire0",
            "uri" : "md_tank74_tire0.jpg"
        },
        {
            "mimeType" : "image/jpeg",
            "name" : "md_tank74_catapira",
            "uri" : "md_tank74_catapira.jpg"
        },
        {
            "mimeType" : "image/jpeg",
            "name" : "md_tank74_00",
            "uri" : "md_tank74_00.jpg"
        },
        {
            "mimeType" : "image/jpeg",
            "name" : "md_tank74_01",
            "uri" : "md_tank74_01.jpg"
        },
        {
            "mimeType" : "image/jpeg",
            "name" : "md_tank74_02",
            "uri" : "md_tank74_02.jpg"
        },
        {
            "mimeType" : "image/png",
            "name" : "md_tank74_catapira_n",
            "uri" : "md_tank74_catapira_n.png"
        }
    ],
    "accessors" : [
        {
            "bufferView" : 0,
            "componentType" : 5126,
            "count" : 46,
            "max" : [
                1.18047034740448,
                2.116569757461548,
                -2.200935125350952
            ],
            "min" : [
                -1.2142468690872192,
                1.274329662322998,
                -2.4204108715057373
            ],
            "type" : "VEC3"
        },
        {
            "bufferView" : 1,
            "componentType" : 5126,
            "count" : 46,
            "type" : "VEC3"
        },
        {
            "bufferView" : 2,
            "componentType" : 5126,
            "count" : 46,
            "type" : "VEC2"
        },
        {
            "bufferView" : 3,
            "componentType" : 5123,
            "count" : 96,
            "type" : "SCALAR"
        },
        {
            "bufferView" : 4,
            "componentType" : 5126,
            "count" : 4476,
            "max" : [
                1.5555413961410522,
                1.07241690158844,
                3.089101552963257
            ],
            "min" : [
                -1.589316964149475,
                0.0857710987329483,
                -3.137472629547119
            ],
            "type" : "VEC3"
        },
        {
            "bufferView" : 5,
            "componentType" : 5126,
            "count" : 4476,
            "type" : "VEC3"
        },
        {
            "bufferView" : 6,
            "componentType" : 5126,
            "count" : 4476,
            "type" : "VEC2"
        },
        {
            "bufferView" : 7,
            "componentType" : 5123,
            "count" : 9552,
            "type" : "SCALAR"
        },
        {
            "bufferView" : 8,
            "componentType" : 5126,
            "count" : 300,
            "max" : [
                -1.0310229063034058,
                1.0964106321334839,
                3.073516607284546
            ],
            "min" : [
                -1.5700243711471558,
                0.0036638639867305756,
                -3.2163753509521484
            ],
            "type" : "VEC3"
        },
        {
            "bufferView" : 9,
            "componentType" : 5126,
            "count" : 300,
            "type" : "VEC3"
        },
        {
            "bufferView" : 10,
            "componentType" : 5126,
            "count" : 300,
            "type" : "VEC2"
        },
        {
            "bufferView" : 11,
            "componentType" : 5123,
            "count" : 870,
            "type" : "SCALAR"
        },
        {
            "bufferView" : 12,
            "componentType" : 5126,
            "count" : 300,
            "max" : [
                1.5362482070922852,
                1.0964106321334839,
                3.073516368865967
            ],
            "min" : [
                0.9972466826438904,
                0.0036638639867305756,
                -3.2163755893707275
            ],
            "type" : "VEC3"
        },
        {
            "bufferView" : 13,
            "componentType" : 5126,
            "count" : 300,
            "type" : "VEC3"
        },
        {
            "bufferView" : 14,
            "componentType" : 5126,
            "count" : 300,
            "type" : "VEC2"
        },
        {
            "bufferView" : 15,
            "componentType" : 5123,
            "count" : 870,
            "type" : "SCALAR"
        },
        {
            "bufferView" : 16,
            "componentType" : 5126,
            "count" : 1441,
            "max" : [
                1.5202444791793823,
                1.6220906972885132,
                3.4549686908721924
            ],
            "min" : [
                -1.5540205240249634,
                0.3960278630256653,
                -3.272629976272583
            ],
            "type" : "VEC3"
        },
        {
            "bufferView" : 17,
            "componentType" : 5126,
            "count" : 1441,
            "type" : "VEC3"
        },
        {
            "bufferView" : 18,
            "componentType" : 5126,
            "count" : 1441,
            "type" : "VEC2"
        },
        {
            "bufferView" : 19,
            "componentType" : 5123,
            "count" : 2814,
            "type" : "SCALAR"
        },
        {
            "bufferView" : 20,
            "componentType" : 5126,
            "count" : 5069,
            "max" : [
                1.3096522092819214,
                3.7131729125976562,
                2.1223483085632324
            ],
            "min" : [
                -1.3434282541275024,
                1.449436902999878,
                -5.642492771148682
            ],
            "type" : "VEC3"
        },
        {
            "bufferView" : 21,
            "componentType" : 5126,
            "count" : 5069,
            "type" : "VEC3"
        },
        {
            "bufferView" : 22,
            "componentType" : 5126,
            "count" : 5069,
            "type" : "VEC2"
        },
        {
            "bufferView" : 23,
            "componentType" : 5123,
            "count" : 10884,
            "type" : "SCALAR"
        },
        {
            "bufferView" : 24,
            "componentType" : 5126,
            "count" : 2961,
            "max" : [
                1.5521140098571777,
                1.5405222177505493,
                3.4716835021972656
            ],
            "min" : [
                -1.5492957830429077,
                0.38372719287872314,
                -3.181640625
            ],
            "type" : "VEC3"
        },
        {
            "bufferView" : 25,
            "componentType" : 5126,
            "count" : 2961,
            "type" : "VEC3"
        },
        {
            "bufferView" : 26,
            "componentType" : 5126,
            "count" : 2961,
            "type" : "VEC2"
        },
        {
            "bufferView" : 27,
            "componentType" : 5123,
            "count" : 5826,
            "type" : "SCALAR"
        },
        {
            "bufferView" : 28,
            "componentType" : 5126,
            "count" : 72,
            "max" : [
                -1.286659598350525,
                1.0182586908340454,
                2.9545164108276367
            ],
            "min" : [
                -1.2987862825393677,
                0.08339595049619675,
                -3.082146406173706
            ],
            "type" : "VEC3"
        },
        {
            "bufferView" : 29,
            "componentType" : 5126,
            "count" : 72,
            "type" : "VEC3"
        },
        {
            "bufferView" : 30,
            "componentType" : 5126,
            "count" : 72,
            "type" : "VEC2"
        },
        {
            "bufferView" : 31,
            "componentType" : 5123,
            "count" : 180,
            "type" : "SCALAR"
        },
        {
            "bufferView" : 32,
            "componentType" : 5126,
            "count" : 72,
            "max" : [
                1.2650104761123657,
                1.0182586908340454,
                2.9545161724090576
            ],
            "min" : [
                1.2528834342956543,
                0.08339595049619675,
                -3.082146644592285
            ],
            "type" : "VEC3"
        },
        {
            "bufferView" : 33,
            "componentType" : 5126,
            "count" : 72,
            "type" : "VEC3"
        },
        {
            "bufferView" : 34,
            "componentType" : 5126,
            "count" : 72,
            "type" : "VEC2"
        },
        {
            "bufferView" : 35,
            "componentType" : 5123,
            "count" : 180,
            "type" : "SCALAR"
        }
    ],
    "bufferViews" : [
        {
            "buffer" : 0,
            "byteLength" : 552,
            "byteOffset" : 0
        },
        {
            "buffer" : 0,
            "byteLength" : 552,
            "byteOffset" : 552
        },
        {
            "buffer" : 0,
            "byteLength" : 368,
            "byteOffset" : 1104
        },
        {
            "buffer" : 0,
            "byteLength" : 192,
            "byteOffset" : 1472
        },
        {
            "buffer" : 0,
            "byteLength" : 53712,
            "byteOffset" : 1664
        },
        {
            "buffer" : 0,
            "byteLength" : 53712,
            "byteOffset" : 55376
        },
        {
            "buffer" : 0,
            "byteLength" : 35808,
            "byteOffset" : 109088
        },
        {
            "buffer" : 0,
            "byteLength" : 19104,
            "byteOffset" : 144896
        },
        {
            "buffer" : 0,
            "byteLength" : 3600,
            "byteOffset" : 164000
        },
        {
            "buffer" : 0,
            "byteLength" : 3600,
            "byteOffset" : 167600
        },
        {
            "buffer" : 0,
            "byteLength" : 2400,
            "byteOffset" : 171200
        },
        {
            "buffer" : 0,
            "byteLength" : 1740,
            "byteOffset" : 173600
        },
        {
            "buffer" : 0,
            "byteLength" : 3600,
            "byteOffset" : 175340
        },
        {
            "buffer" : 0,
            "byteLength" : 3600,
            "byteOffset" : 178940
        },
        {
            "buffer" : 0,
            "byteLength" : 2400,
            "byteOffset" : 182540
        },
        {
            "buffer" : 0,
            "byteLength" : 1740,
            "byteOffset" : 184940
        },
        {
            "buffer" : 0,
            "byteLength" : 17292,
            "byteOffset" : 186680
        },
        {
            "buffer" : 0,
            "byteLength" : 17292,
            "byteOffset" : 203972
        },
        {
            "buffer" : 0,
            "byteLength" : 11528,
            "byteOffset" : 221264
        },
        {
            "buffer" : 0,
            "byteLength" : 5628,
            "byteOffset" : 232792
        },
        {
            "buffer" : 0,
            "byteLength" : 60828,
            "byteOffset" : 238420
        },
        {
            "buffer" : 0,
            "byteLength" : 60828,
            "byteOffset" : 299248
        },
        {
            "buffer" : 0,
            "byteLength" : 40552,
            "byteOffset" : 360076
        },
        {
            "buffer" : 0,
            "byteLength" : 21768,
            "byteOffset" : 400628
        },
        {
            "buffer" : 0,
            "byteLength" : 35532,
            "byteOffset" : 422396
        },
        {
            "buffer" : 0,
            "byteLength" : 35532,
            "byteOffset" : 457928
        },
        {
            "buffer" : 0,
            "byteLength" : 23688,
            "byteOffset" : 493460
        },
        {
            "buffer" : 0,
            "byteLength" : 11652,
            "byteOffset" : 517148
        },
        {
            "buffer" : 0,
            "byteLength" : 864,
            "byteOffset" : 528800
        },
        {
            "buffer" : 0,
            "byteLength" : 864,
            "byteOffset" : 529664
        },
        {
            "buffer" : 0,
            "byteLength" : 576,
            "byteOffset" : 530528
        },
        {
            "buffer" : 0,
            "byteLength" : 360,
            "byteOffset" : 531104
        },
        {
            "buffer" : 0,
            "byteLength" : 864,
            "byteOffset" : 531464
        },
        {
            "buffer" : 0,
            "byteLength" : 864,
            "byteOffset" : 532328
        },
        {
            "buffer" : 0,
            "byteLength" : 576,
            "byteOffset" : 533192
        },
        {
            "buffer" : 0,
            "byteLength" : 360,
            "byteOffset" : 533768
        }
    ],
    "buffers" : [
        {
            "byteLength" : 534128,
            "uri" : "type-74.bin"
        }
    ]
}
